# xmcd CD database file
#
# Track frame offsets:
#	150
#	17627
#	28725
#	52935
#	72090
#	91682
#	104657
#	117812
#	139852
#	154407
#	168447
#	184987
#	199165
#	215315
#	230700
#	246002
#
# Disc length: 3524 seconds
#
# Revision: 0
# Processed by: cddbd v1.5.2PL0 Copyright (c) Steve Scherf et al.
# Submitted via: CDex 1.70beta2
#
DISCID=dd0dc210
DTITLE=Mey, Reinhard - Mein Apfelbäumchen
DYEAR=1989
DGENRE=Lieder
TTITLE0=01 Mein Apfelbäumchen
TTITLE1=02 Keine ruhige Minute
TTITLE2=03 Menschenjunges
TTITLE3=04 Beim Blättern in den Bildern meiner Kindheit
TTITLE4=05 Zeugnistag
TTITLE5=06 Vaters Nachtlied
TTITLE6=07 Zu deinem dritten Geburtstag
TTITLE7=08 Nein, meine Söhne geb ich nicht
TTITLE8=09 Aller guten Dinge sind drei
TTITLE9=10 Die erste Stunde
TTITLE10=11 Und nun fängt alles das noch mal von vorne an
TTITLE11=12 Lulu
TTITLE12=13 Alles ist gut
TTITLE13=14 Ich frag mich seit ner Weile schon
TTITLE14=15 Abends an deinem Bett
TTITLE15=16 Kleiner Kamerad
EXTD=YEAR: 1989
EXTT0=
EXTT1=
EXTT2=
EXTT3=
EXTT4=
EXTT5=
EXTT6=
EXTT7=
EXTT8=
EXTT9=
EXTT10=
EXTT11=
EXTT12=
EXTT13=
EXTT14=
EXTT15=
PLAYORDER=
